<?xml version="1.0" standalone="no"?>
<!DOCTYPE svg PUBLIC "-//W3C//DTD SVG 20010904//EN"
 "http://www.w3.org/TR/2001/REC-SVG-20010904/DTD/svg10.dtd">
<svg version="1.0" xmlns="http://www.w3.org/2000/svg"
 width="600.000000pt" height="600.000000pt" viewBox="0 0 600.000000 600.000000"
 preserveAspectRatio="xMidYMid meet">
<metadata>
Created by potrace 1.11, written by Peter Selinger 2001-2013
</metadata>
<g transform="translate(0.000000,600.000000) scale(0.100000,-0.100000)"
fill="#000000" stroke="none">
<path d="M3373 5583 c9 -2 23 -2 30 0 6 3 -1 5 -18 5 -16 0 -22 -2 -12 -5z"/>
<path d="M3130 5559 c-25 -5 -90 -11 -145 -14 -177 -8 -250 -14 -298 -24 -25
-6 -61 -9 -79 -6 -27 4 -28 3 -8 -3 23 -8 22 -9 -15 -16 -65 -13 -224 -75
-315 -123 -511 -273 -906 -832 -1085 -1537 -238 -936 -64 -1946 456 -2654 91
-124 327 -358 444 -440 104 -74 292 -170 415 -212 47 -17 69 -27 50 -24 -23 4
-32 3 -25 -4 6 -5 30 -13 55 -16 31 -4 39 -3 25 3 -15 7 -16 10 -4 10 9 1 19
-2 22 -6 10 -9 51 -14 139 -16 43 -1 70 -5 60 -8 -9 -4 4 -6 30 -5 67 2 49 21
-58 62 -49 18 -89 32 -91 31 -1 -2 0 -13 3 -24 4 -12 19 -26 36 -32 41 -14 61
-14 52 1 -5 7 -3 8 5 3 9 -5 9 -11 3 -17 -21 -21 -205 38 -363 118 -513 257
-930 836 -1109 1537 -77 304 -104 522 -104 852 0 266 10 395 50 615 138 762
521 1394 1039 1717 187 117 476 223 523 192 16 -10 15 -10 -1 -5 -22 7 -148
-26 -224 -58 -42 -17 -51 -25 -38 -30 10 -3 20 -4 23 -1 3 3 1 5 -4 5 -17 1
141 50 162 50 11 0 69 14 129 30 59 17 112 29 118 27 6 -2 -21 -11 -59 -21
-96 -26 -100 -36 -7 -20 43 8 107 14 143 13 43 0 83 6 120 20 30 12 64 22 75
22 25 2 -53 18 -80 17 -11 0 -40 -4 -65 -9z"/>
<path d="M3565 5550 c-434 -49 -824 -294 -1134 -714 -720 -972 -743 -2586 -53
-3596 272 -397 605 -650 992 -752 100 -27 137 -31 285 -35 146 -5 186 -2 283
16 734 141 1330 874 1521 1873 70 364 79 808 26 1170 -92 616 -338 1158 -695
1532 -307 321 -654 491 -1040 510 -58 2 -141 1 -185 -4z m404 -981 c301 -77
576 -336 745 -701 124 -268 180 -538 180 -868 0 -281 -37 -498 -129 -746 -82
-222 -191 -391 -355 -554 -135 -134 -227 -194 -382 -249 -102 -36 -104 -36
-268 -36 -161 0 -168 1 -260 33 -165 58 -287 139 -423 282 -231 242 -384 593
-438 1000 -16 122 -16 418 0 540 105 798 597 1356 1165 1323 50 -2 124 -13
165 -24z"/>
<path d="M3628 4430 c-122 -22 -229 -71 -347 -161 l-82 -61 76 -79 c197 -207
330 -506 381 -859 25 -172 15 -490 -20 -655 -65 -308 -187 -559 -362 -744
l-71 -75 46 -40 c148 -127 311 -190 496 -190 218 0 394 80 570 258 349 353
503 987 385 1577 -104 514 -388 895 -755 1008 -79 25 -240 35 -317 21z"/>
<path d="M2479 5505 c-3 -2 -56 -7 -118 -10 -63 -3 -143 -10 -180 -17 l-66
-12 40 -7 c32 -5 24 -6 -37 -8 -53 -1 -104 -9 -163 -28 -90 -28 -95 -43 -15
-42 88 0 339 69 300 82 -8 2 -3 3 11 1 14 -1 30 1 35 5 5 5 34 11 64 14 l55 6
-50 -15 c-87 -26 -196 -66 -191 -71 2 -2 21 0 42 6 21 6 39 9 40 8 2 -2 -28
-18 -66 -37 -39 -18 -68 -35 -65 -38 7 -8 123 37 206 79 41 22 82 39 90 39 8
0 48 11 89 24 l75 24 -46 1 c-25 1 -48 -1 -50 -4z m-169 -75 c-34 -11 -60 -11
-35 0 11 5 29 8 40 8 16 0 15 -2 -5 -8z"/>
<path d="M2861 5474 c-65 -12 -248 -90 -237 -101 2 -2 41 5 87 15 63 13 98 16
139 10 38 -6 62 -5 78 3 16 9 19 15 10 21 -9 5 -4 8 14 8 40 0 63 11 46 21 -9
6 -5 9 14 9 40 0 63 11 46 21 -19 12 -111 9 -197 -7z m76 -10 c-3 -3 -12 -4
-19 -1 -8 3 -5 6 6 6 11 1 17 -2 13 -5z m-60 -30 c-3 -3 -12 -4 -19 -1 -8 3
-5 6 6 6 11 1 17 -2 13 -5z"/>
<path d="M2675 5449 c-33 -12 -65 -25 -72 -31 -7 -5 -17 -7 -22 -3 -19 11 -95
-16 -173 -62 -43 -25 -80 -49 -83 -53 -9 -14 128 42 185 77 30 18 60 33 65 33
6 -1 -6 -9 -25 -20 -27 -15 -30 -19 -15 -20 11 -1 -8 -11 -42 -24 -35 -13 -83
-39 -108 -57 -25 -19 -57 -42 -71 -53 -14 -10 -23 -20 -21 -22 14 -14 265 136
260 155 -1 5 17 14 40 21 52 15 178 79 157 79 -8 0 -42 -9 -75 -20z"/>
<path d="M2145 5390 c3 -6 -3 -10 -13 -10 -23 0 -166 -71 -202 -100 -24 -19
-22 -19 35 2 88 33 209 104 190 112 -9 3 -13 2 -10 -4z"/>
<path d="M1965 5365 c-27 -7 -73 -10 -102 -7 -62 6 -114 -5 -92 -19 10 -6 7
-9 -13 -9 -35 0 -59 -10 -52 -21 3 -5 -3 -9 -13 -9 -11 0 -28 -6 -38 -14 -18
-13 -17 -14 12 -20 18 -4 45 -8 61 -8 41 -1 173 32 202 50 14 9 50 29 80 44
61 30 44 35 -45 13z m-112 -42 c-7 -2 -19 -2 -25 0 -7 3 -2 5 12 5 14 0 19 -2
13 -5z"/>
<path d="M2653 5360 c-91 -21 -127 -36 -118 -51 4 -5 3 -9 -2 -8 -16 4 -64
-21 -69 -36 -4 -8 -12 -15 -19 -15 -6 0 -20 -9 -29 -19 -16 -18 -12 -17 66 5
75 21 89 22 150 12 53 -10 70 -9 82 1 19 16 20 28 4 34 -7 2 -1 3 13 1 17 -2
33 4 44 16 16 17 15 19 -2 23 -11 3 -6 5 13 6 16 0 39 7 49 15 17 12 15 14
-26 21 -24 3 -51 8 -59 10 -8 2 -52 -5 -97 -15z m64 -26 c-3 -3 -12 -4 -19 -1
-8 3 -5 6 6 6 11 1 17 -2 13 -5z m-57 -40 c0 -2 -7 -4 -15 -4 -8 0 -15 4 -15
10 0 5 7 7 15 4 8 -4 15 -8 15 -10z"/>
<path d="M2100 5331 c13 -9 13 -11 0 -11 -8 0 -40 -12 -70 -27 -30 -15 -64
-28 -75 -29 -44 -5 -122 -48 -187 -101 -38 -31 -71 -60 -74 -65 -8 -12 116 50
138 69 9 8 22 12 28 8 6 -3 9 -1 8 6 -2 6 18 27 45 46 26 19 47 32 47 30 0 -3
-20 -20 -45 -38 -25 -18 -43 -34 -41 -37 8 -8 109 44 190 96 43 29 74 52 68
52 -6 0 -19 3 -29 6 -15 5 -15 4 -3 -5z"/>
<path d="M2315 5279 c-49 -20 -113 -65 -185 -128 l-35 -31 68 30 c37 16 91 49
120 72 29 24 64 51 77 60 33 23 16 21 -45 -3z"/>
<path d="M1765 5239 c-59 -16 -79 -18 -127 -9 -44 8 -62 8 -77 -2 -24 -15 -26
-24 -8 -32 6 -3 0 -4 -14 -1 -18 3 -32 -2 -43 -14 -17 -18 -17 -20 1 -24 11
-4 8 -5 -8 -4 -25 2 -59 -17 -59 -33 0 -3 22 -12 49 -18 44 -10 59 -8 138 14
86 25 119 41 108 52 -3 3 9 12 26 19 17 7 28 17 24 23 -4 6 -3 9 2 8 9 -2 73
30 73 37 0 7 -6 6 -85 -16z m-135 -59 c0 -5 -7 -7 -15 -4 -8 4 -15 8 -15 10 0
2 7 4 15 4 8 0 15 -4 15 -10z m-40 -46 c0 -2 -9 -4 -20 -4 -11 0 -20 4 -20 9
0 5 9 7 20 4 11 -3 20 -7 20 -9z"/>
<path d="M2290 5194 c-30 -14 -62 -31 -71 -40 -9 -8 -25 -16 -35 -18 -65 -13
-123 -51 -196 -128 -43 -45 -76 -84 -73 -86 8 -8 124 69 157 106 52 55 113
110 97 86 -8 -12 -29 -33 -46 -48 -52 -44 -38 -51 26 -14 47 26 218 170 201
167 -3 0 -30 -11 -60 -25z"/>
<path d="M2432 5200 c-74 -20 -121 -46 -122 -67 0 -7 -6 -13 -13 -13 -18 0
-49 -34 -40 -43 3 -4 0 -7 -9 -7 -14 0 -48 -30 -48 -42 0 -4 36 6 80 20 l81
26 67 -17 66 -18 17 23 c16 21 16 23 1 36 -15 12 -14 13 9 8 18 -4 31 0 43 13
17 18 16 20 -1 30 -16 10 -15 11 7 9 23 -2 80 27 69 35 -6 5 -108 27 -122 26
-7 0 -45 -9 -85 -19z m74 -29 c-5 -8 -56 -3 -56 5 0 2 14 4 31 4 16 0 28 -4
25 -9z m-99 -17 c-3 -3 -12 -4 -19 -1 -8 3 -5 6 6 6 11 1 17 -2 13 -5z m43
-34 c0 -12 -8 -12 -35 0 -18 8 -17 9 8 9 15 1 27 -3 27 -9z m-90 -15 c-19 -7
-42 -13 -50 -13 -8 0 1 6 20 13 19 7 42 13 50 13 8 0 -1 -6 -20 -13z"/>
<path d="M1858 5157 c-45 -21 -182 -137 -191 -162 -10 -25 121 58 188 120 39
35 66 64 60 64 -5 0 -31 -10 -57 -22z"/>
<path d="M1695 5079 c-42 -22 -142 -113 -178 -163 l-21 -29 52 29 c49 27 217
185 196 184 -5 -1 -27 -10 -49 -21z"/>
<path d="M1545 5068 c-57 -18 -63 -18 -117 -4 -56 15 -59 15 -78 -4 -24 -24
-25 -27 -2 -33 9 -3 3 -5 -14 -6 -34 -1 -69 -31 -46 -38 20 -7 13 -22 -8 -16
-22 6 -50 -12 -50 -31 0 -7 24 -20 54 -29 l54 -17 83 30 c84 31 123 56 114 71
-3 4 4 10 15 14 18 6 24 17 21 38 0 4 5 7 13 7 8 0 24 9 37 20 22 18 23 19 4
19 -11 -1 -47 -10 -80 -21z m-45 -53 c-19 -7 -42 -13 -50 -13 -8 0 1 6 20 13
19 7 42 13 50 13 8 0 -1 -6 -20 -13z m-70 -15 c0 -5 -4 -10 -9 -10 -6 0 -13 5
-16 10 -3 6 1 10 9 10 9 0 16 -4 16 -10z m26 -36 c-76 -26 -106 -30 -106 -13
0 6 8 8 18 5 10 -4 43 3 73 13 29 11 61 20 69 20 8 0 -16 -11 -54 -25z"/>
<path d="M2088 4998 c-43 -23 -72 -50 -116 -107 -92 -119 -92 -118 14 -47 24
17 173 187 162 186 -2 0 -29 -15 -60 -32z"/>
<path d="M2235 5005 c-50 -14 -86 -32 -97 -46 -10 -12 -17 -23 -15 -25 2 -2
37 7 77 21 80 27 110 31 110 14 0 -6 -9 -9 -20 -6 -34 9 -196 -51 -214 -78
-16 -24 -15 -24 74 8 75 27 91 30 102 18 11 -11 9 -13 -12 -8 -37 8 -189 -52
-209 -82 -19 -29 -18 -29 87 10 l63 23 62 -22 62 -22 24 27 23 27 -21 8 c-29
10 -27 22 3 14 16 -4 29 1 42 15 18 20 18 21 -1 36 -19 15 -19 15 8 10 20 -3
32 1 42 16 8 12 11 24 7 28 -5 6 -113 41 -116 38 -1 0 -37 -11 -81 -24z"/>
<path d="M1668 4969 c-42 -23 -73 -52 -122 -114 -36 -46 -66 -86 -66 -89 0
-16 120 73 152 113 21 25 52 63 69 84 17 20 29 37 27 37 -1 0 -29 -14 -60 -31z"/>
<path d="M1918 4895 c-53 -33 -105 -92 -158 -179 -26 -43 -22 -42 54 12 27 20
63 59 81 87 18 28 40 57 50 65 15 12 40 50 33 50 -2 0 -29 -16 -60 -35z"/>
<path d="M1499 4865 c-43 -26 -70 -55 -119 -126 -35 -51 -57 -88 -49 -84 59
36 122 92 144 129 14 23 35 52 46 62 18 17 44 54 37 54 -2 0 -28 -16 -59 -35z"/>
<path d="M1360 4865 l-65 -25 -59 22 -58 21 -19 -24 c-17 -22 -17 -25 -2 -36
15 -12 14 -13 -9 -13 -13 0 -33 -9 -43 -20 -18 -20 -18 -21 3 -27 12 -3 20 -9
17 -13 -3 -5 -15 -6 -27 -3 -14 4 -26 0 -34 -12 -21 -28 -18 -32 43 -55 l57
-21 81 32 c45 17 87 40 94 51 7 11 11 21 9 23 -2 1 -36 -10 -76 -25 -67 -26
-102 -30 -102 -10 0 4 10 5 23 3 31 -6 179 53 195 77 15 24 15 24 -38 5 -24
-8 -45 -13 -47 -11 -3 2 20 12 51 22 31 10 66 28 78 41 28 30 12 29 -72 -2z
m-83 -77 c-16 -10 -57 -10 -57 0 0 4 16 8 35 8 21 0 30 -3 22 -8z"/>
<path d="M1904 4766 c-28 -19 -61 -51 -73 -71 -24 -41 -26 -49 -9 -39 7 5 8 3
4 -5 -5 -7 -11 -10 -14 -6 -6 6 -71 -93 -72 -108 0 -5 27 13 60 39 33 26 60
50 60 53 0 3 24 43 54 89 30 45 51 82 47 82 -3 0 -29 -15 -57 -34z"/>
<path d="M2055 4774 c-62 -21 -115 -61 -115 -86 0 -4 37 8 83 26 80 31 117 35
117 14 0 -6 -10 -8 -25 -4 -31 8 -173 -47 -197 -76 -32 -37 -19 -38 63 -3 75
32 109 36 109 13 0 -5 -9 -6 -21 -3 -46 15 -232 -85 -206 -111 2 -3 38 9 79
26 l75 31 63 -25 c35 -14 65 -26 66 -26 2 0 11 12 21 26 16 25 16 27 -8 46
l-24 19 32 -6 c25 -5 34 -2 42 14 15 27 14 41 -4 41 -8 0 -15 5 -15 10 0 6 10
8 23 5 18 -5 28 0 41 20 10 15 16 28 14 29 -8 6 -126 46 -134 45 -5 0 -40 -11
-79 -25z"/>
<path d="M1493 4745 c-28 -19 -65 -54 -83 -79 -17 -25 -29 -46 -26 -46 2 0
-11 -23 -30 -51 -19 -29 -33 -54 -30 -56 6 -6 109 76 120 96 5 9 31 49 58 90
27 40 48 74 46 76 -2 2 -26 -12 -55 -30z"/>
<path d="M1745 4652 c-39 -29 -62 -60 -104 -135 -29 -54 -52 -100 -49 -102 11
-11 115 90 137 132 15 30 18 44 9 38 -7 -6 -4 -1 7 10 27 25 70 95 58 95 -4 0
-30 -17 -58 -38z"/>
<path d="M1350 4643 c-61 -42 -76 -61 -131 -166 l-53 -102 53 44 c55 46 106
115 96 131 -3 5 3 15 13 22 19 13 67 87 61 92 -2 2 -20 -8 -39 -21z"/>
<path d="M1196 4630 l-68 -29 -61 24 c-63 26 -63 26 -87 -17 -8 -13 -5 -18 10
-23 11 -4 18 -11 15 -16 -4 -5 -14 -5 -25 1 -16 9 -22 5 -35 -19 -14 -28 -14
-30 5 -36 11 -4 18 -11 15 -16 -4 -5 -14 -5 -25 1 -16 9 -22 5 -35 -20 l-16
-30 57 -25 c31 -14 61 -25 66 -25 5 0 42 14 82 32 51 21 79 40 90 60 10 15 15
28 11 28 -3 0 -35 -13 -72 -30 -71 -32 -98 -37 -109 -18 -5 8 0 9 15 5 31 -8
160 48 188 81 12 14 21 28 19 29 -2 2 -35 -10 -74 -27 -77 -33 -97 -36 -108
-18 -5 8 0 9 15 5 21 -5 149 41 179 66 17 14 35 47 25 47 -4 0 -39 -14 -77
-30z"/>
<path d="M1757 4513 c-29 -22 -57 -54 -73 -84 -27 -55 -29 -63 -11 -53 6 4 2
-4 -9 -17 -23 -26 -38 -52 -54 -95 -10 -24 -4 -22 42 22 40 37 66 74 105 154
28 57 51 105 50 106 -1 2 -24 -14 -50 -33z"/>
<path d="M1915 4516 c-33 -13 -67 -26 -76 -30 -13 -6 -55 -76 -45 -76 2 0 38
16 80 35 61 29 80 34 96 25 29 -15 25 -23 -8 -15 -35 7 -175 -54 -191 -84 -21
-38 -10 -39 64 -5 47 22 83 33 95 29 30 -10 24 -25 -7 -19 -41 8 -175 -57
-192 -92 -6 -15 -10 -28 -8 -31 3 -2 38 12 80 31 l75 34 50 -23 c81 -38 87
-38 100 -10 16 35 15 43 -8 50 -31 10 -24 27 8 20 24 -5 30 -2 41 21 12 27 8
35 -24 47 -5 3 -7 7 -3 11 3 4 15 3 26 -3 16 -8 21 -6 31 15 6 14 11 29 11 33
0 7 -123 63 -133 60 -1 0 -29 -10 -62 -23z"/>
<path d="M1327 4479 c-53 -46 -114 -146 -74 -123 6 4 2 -4 -10 -17 -12 -13
-31 -46 -42 -72 l-21 -49 37 30 c21 16 46 38 55 49 22 24 120 223 110 223 -4
0 -29 -19 -55 -41z"/>
<path d="M1598 4380 c-40 -35 -52 -55 -89 -148 -23 -59 -44 -114 -47 -122 -13
-38 103 90 124 138 29 63 29 69 7 51 -10 -7 -6 0 8 16 24 27 59 86 59 100 0
12 -18 2 -62 -35z"/>
<path d="M1052 4364 l-72 -33 -63 30 -62 29 -15 -31 c-13 -28 -13 -32 3 -40
24 -14 21 -27 -6 -22 -17 3 -26 -2 -35 -21 -10 -22 -9 -27 8 -36 11 -6 20 -15
20 -21 0 -6 -7 -6 -19 1 -11 5 -22 10 -24 10 -6 0 -31 -60 -26 -63 2 -1 32
-16 67 -32 l63 -29 75 37 c53 27 77 45 85 63 5 15 8 28 7 30 -2 1 -36 -13 -76
-31 -68 -32 -102 -36 -102 -13 0 5 9 7 20 3 25 -8 165 56 179 83 22 40 10 42
-60 7 -44 -23 -78 -34 -90 -30 -27 9 -24 27 4 20 35 -9 170 56 185 90 7 15 11
29 10 30 -2 1 -36 -12 -76 -31z"/>
<path d="M1186 4358 c-39 -35 -55 -62 -91 -152 -25 -59 -45 -111 -45 -114 0
-4 23 16 51 43 50 50 84 108 75 131 -3 7 2 18 11 26 16 13 56 98 50 105 -3 2
-25 -16 -51 -39z"/>
<path d="M1623 4222 c-39 -34 -58 -66 -78 -131 -6 -18 -4 -22 6 -16 8 5 6 0
-3 -11 -18 -20 -48 -96 -48 -120 0 -7 22 11 48 39 40 43 55 70 86 160 21 60
36 110 34 112 -1 2 -22 -13 -45 -33z"/>
<path d="M1809 4235 c-76 -28 -116 -54 -129 -85 -7 -17 -11 -32 -9 -34 2 -2
37 11 78 30 43 20 81 32 92 29 29 -10 22 -25 -8 -19 -41 7 -170 -57 -183 -91
-17 -45 -12 -45 65 -4 61 33 78 38 95 29 11 -6 20 -15 20 -21 0 -6 -8 -5 -21
2 -33 17 -166 -54 -185 -98 -8 -18 -14 -35 -14 -38 0 -3 35 12 78 33 l77 39
70 -33 c39 -18 73 -30 76 -26 4 4 10 21 13 38 6 26 3 32 -21 44 -15 7 -23 15
-16 17 7 2 21 0 32 -6 16 -9 21 -6 30 21 14 40 15 37 -15 48 -14 6 -22 14 -19
20 4 7 12 7 25 0 10 -5 21 -10 23 -10 6 0 29 62 25 66 -4 3 -140 64 -142 63 0
0 -17 -6 -37 -14z"/>
<path d="M1198 4193 c-26 -27 -54 -67 -63 -92 -19 -55 -19 -57 2 -40 9 8 5 -2
-9 -21 -22 -30 -48 -96 -48 -124 0 -22 97 102 111 143 9 25 28 76 42 114 15
37 23 67 19 67 -4 0 -29 -21 -54 -47z"/>
<path d="M1484 4083 c-47 -46 -51 -54 -81 -168 -18 -67 -33 -124 -33 -128 0
-6 51 49 86 93 7 8 19 39 28 69 15 50 15 52 -2 40 -15 -12 -15 -11 1 8 19 22
61 123 54 129 -2 2 -26 -17 -53 -43z"/>
<path d="M936 4073 l-70 -35 -67 30 -68 30 -11 -32 c-9 -27 -8 -33 10 -45 26
-17 26 -35 1 -21 -27 14 -28 14 -39 -20 -9 -26 -8 -31 9 -40 10 -6 19 -15 19
-21 0 -6 -7 -6 -20 1 -17 9 -22 7 -30 -15 -6 -15 -10 -30 -10 -36 0 -5 30 -24
68 -43 l67 -34 70 39 c48 26 72 46 78 64 5 15 7 29 4 32 -4 3 -36 -11 -72 -31
-53 -29 -70 -34 -86 -26 -11 6 -17 15 -14 21 4 6 13 6 24 0 28 -15 158 55 171
93 5 16 10 31 10 33 0 2 -32 -13 -71 -32 -44 -23 -78 -34 -90 -30 -28 9 -24
27 5 19 16 -4 46 6 94 30 56 28 72 42 81 67 6 18 10 33 9 35 -2 1 -34 -14 -72
-33z"/>
<path d="M1068 4062 c-40 -42 -49 -59 -78 -160 -17 -62 -30 -115 -27 -118 10
-10 88 93 98 129 5 21 13 46 16 55 6 15 5 16 -13 2 -16 -12 -16 -11 2 10 19
23 58 119 51 126 -2 2 -24 -18 -49 -44z"/>
<path d="M1522 3907 c-43 -44 -55 -67 -66 -131 -7 -37 -6 -39 10 -25 13 10 12
6 -4 -16 -19 -27 -41 -97 -42 -133 0 -8 19 10 42 39 36 46 46 71 74 179 17 69
31 126 30 127 -1 2 -21 -16 -44 -40z"/>
<path d="M1101 3886 c-30 -31 -46 -58 -56 -97 -18 -68 -18 -79 0 -55 8 11 15
16 15 11 0 -5 -9 -18 -19 -29 -16 -18 -45 -125 -37 -134 2 -1 22 22 44 52 34
45 46 74 71 172 16 65 29 120 27 121 -1 1 -21 -17 -45 -41z"/>
<path d="M1665 3892 c-50 -27 -72 -45 -79 -64 -5 -15 -7 -30 -4 -34 4 -3 36
11 72 31 66 37 106 40 106 9 0 -12 -4 -12 -20 -4 -16 8 -34 3 -92 -26 -40 -20
-76 -42 -80 -48 -9 -13 -10 -56 -2 -56 3 0 35 16 70 36 64 36 104 39 104 9 0
-12 -5 -12 -23 -4 -19 9 -34 4 -87 -26 -36 -20 -71 -43 -77 -52 -13 -17 -18
-63 -7 -63 3 0 35 16 71 37 l66 36 74 -37 c42 -20 76 -36 78 -34 1 2 5 19 9
39 6 31 3 37 -19 47 -28 13 -35 38 -7 27 31 -12 35 -10 43 20 9 30 -1 46 -35
58 -6 2 -8 7 -4 11 3 4 15 3 27 -3 22 -12 25 -9 35 31 6 26 2 30 -64 63 -38
19 -73 35 -77 35 -5 0 -39 -17 -78 -38z"/>
<path d="M1400 3768 c-49 -57 -49 -56 -71 -181 -27 -158 -26 -161 24 -92 31
44 46 76 53 118 11 57 10 57 -10 40 -17 -16 -17 -14 3 15 22 31 55 143 42 141
-3 0 -22 -19 -41 -41z"/>
<path d="M841 3754 l-65 -36 -68 33 c-37 18 -69 31 -72 28 -2 -2 -7 -18 -10
-35 -6 -26 -3 -32 19 -42 14 -7 23 -17 20 -22 -4 -7 -13 -6 -26 1 -24 13 -24
13 -32 -27 -5 -26 -2 -33 19 -42 13 -7 24 -16 24 -22 0 -7 -7 -7 -21 1 -27 14
-42 0 -37 -36 2 -21 16 -33 70 -62 l68 -35 69 41 c59 35 69 45 74 73 2 18 4
34 3 35 -1 1 -33 -15 -70 -37 -54 -32 -72 -38 -87 -30 -10 6 -19 15 -19 20 0
12 7 13 28 1 13 -7 34 1 81 29 70 42 81 54 81 87 0 21 -3 20 -67 -17 -51 -30
-71 -36 -85 -29 -10 5 -18 14 -18 20 0 6 7 6 19 -1 16 -8 33 -2 90 31 39 22
71 41 71 42 0 1 4 17 9 35 5 17 7 32 3 32 -4 0 -36 -16 -71 -36z"/>
<path d="M983 3751 c-18 -22 -37 -50 -42 -64 -12 -32 -44 -223 -39 -237 6 -20
76 93 83 135 4 22 9 49 11 60 5 20 5 20 -10 1 -9 -11 -16 -16 -16 -11 0 5 7
16 16 26 17 19 47 129 36 129 -4 0 -22 -18 -39 -39z"/>
<path d="M1031 3560 c-24 -30 -43 -66 -46 -88 -3 -20 -8 -50 -10 -66 -5 -26
-3 -27 12 -15 17 13 17 13 1 -12 -15 -24 -37 -149 -26 -149 3 0 21 26 41 58
31 50 37 73 54 190 10 72 17 132 16 132 -1 0 -20 -23 -42 -50z"/>
<path d="M1458 3582 c-42 -45 -55 -74 -62 -136 -6 -51 -4 -57 8 -47 10 8 8 0
-5 -26 -11 -22 -19 -57 -19 -88 l0 -50 40 62 c22 34 40 73 40 85 0 13 7 68 15
122 8 55 14 101 12 103 -2 1 -15 -10 -29 -25z"/>
<path d="M1589 3550 c-56 -34 -67 -45 -72 -72 -2 -18 -3 -35 -2 -36 2 -2 34
14 71 36 57 35 70 39 90 30 27 -13 33 -34 7 -23 -29 12 -35 10 -104 -30 -59
-33 -68 -42 -73 -73 -3 -20 -4 -37 -3 -38 1 -1 31 15 67 37 73 44 79 45 106
23 18 -15 18 -15 -10 -9 -22 5 -43 -3 -96 -34 -64 -38 -68 -43 -72 -81 -2 -22
-2 -40 1 -40 2 0 32 18 67 40 l64 40 79 -39 c43 -22 81 -37 85 -34 3 4 6 23 6
44 0 31 -4 38 -25 43 -14 4 -25 13 -25 22 0 12 4 13 21 3 17 -9 23 -8 30 2 17
27 10 59 -16 71 -14 6 -25 15 -25 20 0 11 11 10 30 -2 18 -11 30 5 30 42 0 24
-9 32 -70 63 -38 19 -75 35 -82 35 -7 0 -43 -18 -79 -40z"/>
<path d="M1342 3425 c-42 -55 -49 -83 -57 -230 -7 -132 -7 -132 47 -35 31 55
46 168 19 147 -14 -11 -14 -9 0 13 14 22 37 151 27 150 -1 0 -18 -20 -36 -45z"/>
<path d="M783 3419 l-61 -40 -71 35 c-39 20 -72 36 -75 36 -2 0 -6 -16 -8 -36
-4 -30 0 -38 19 -47 13 -5 23 -17 23 -26 0 -12 -3 -12 -12 -3 -23 23 -38 13
-38 -23 0 -24 6 -37 20 -45 11 -6 20 -15 20 -21 0 -6 -7 -6 -19 1 -29 15 -31
13 -31 -28 0 -37 1 -38 75 -75 83 -41 78 -41 160 14 39 26 45 35 45 65 0 33
-1 34 -22 23 -13 -7 -40 -23 -60 -37 -26 -17 -45 -22 -63 -18 -35 9 -32 29 3
22 21 -5 42 4 90 34 57 37 62 44 62 75 l0 35 -65 -40 c-54 -35 -67 -39 -85
-30 -11 6 -20 15 -20 21 0 6 7 6 20 -1 18 -9 32 -4 90 32 67 41 70 44 70 80 0
21 -1 38 -2 37 -2 0 -31 -19 -65 -40z"/>
<path d="M926 3416 c-14 -19 -30 -45 -35 -59 -10 -26 -27 -285 -18 -277 28 27
66 116 72 171 7 60 7 63 -11 49 -17 -14 -17 -14 0 12 16 24 35 138 24 138 -3
0 -17 -15 -32 -34z"/>
<path d="M990 3209 l-35 -52 -3 -143 c-1 -79 0 -144 2 -144 3 0 18 24 34 53
28 48 30 62 37 195 4 78 6 142 4 142 -2 0 -20 -23 -39 -51z m-18 -181 c-7 -7
-12 -8 -12 -2 0 14 12 26 19 19 2 -3 -1 -11 -7 -17z"/>
<path d="M1417 3228 c-40 -54 -47 -74 -47 -139 0 -57 1 -60 17 -48 16 13 16
13 0 -11 -12 -17 -17 -45 -17 -95 l0 -70 33 55 c31 53 32 60 38 195 3 77 5
141 4 143 -2 2 -14 -12 -28 -30z"/>
<path d="M1557 3196 c-63 -39 -67 -43 -67 -78 0 -21 2 -38 5 -38 2 0 32 18 65
39 53 35 65 38 86 29 33 -15 30 -31 -5 -23 -23 5 -42 -2 -90 -32 -57 -36 -61
-40 -61 -76 l0 -39 38 23 c20 12 50 31 65 42 27 18 29 18 55 1 28 -18 16 -33
-14 -16 -14 8 -32 0 -81 -32 -61 -40 -63 -42 -63 -85 l0 -43 28 18 c15 9 43
28 63 41 l37 24 81 -40 c44 -23 83 -41 86 -41 3 0 5 18 5 40 0 34 -4 42 -30
55 -16 9 -30 20 -30 26 0 6 6 6 19 -1 32 -17 41 -12 41 25 0 28 -5 37 -30 50
-30 16 -43 42 -15 31 8 -3 22 -9 30 -12 12 -5 15 2 15 33 0 38 0 39 -83 80
l-83 41 -67 -42z"/>
<path d="M1313 3050 c-30 -54 -33 -66 -32 -142 1 -46 4 -108 8 -138 l7 -55 31
60 c28 55 30 65 23 120 -4 33 -8 54 -9 46 0 -8 -4 -12 -7 -9 -3 4 -1 16 6 27
6 12 10 50 8 86 l-3 64 -32 -59z"/>
<path d="M540 3065 c0 -29 6 -39 30 -53 31 -17 42 -39 15 -28 -8 3 -22 9 -30
12 -12 5 -15 -2 -15 -30 0 -29 5 -38 30 -51 17 -9 30 -20 30 -26 0 -6 -6 -6
-19 1 -32 16 -37 12 -33 -25 4 -34 10 -39 83 -76 l79 -39 60 40 c54 37 60 44
60 75 0 19 -3 35 -8 35 -4 0 -31 -16 -59 -35 -56 -38 -72 -42 -91 -23 -19 19
-14 30 9 18 17 -10 30 -5 80 27 55 35 59 41 59 76 0 42 3 43 -73 -11 -46 -33
-48 -33 -72 -18 -33 22 -32 29 4 21 24 -5 41 1 85 31 52 34 56 40 56 75 0 22
-2 39 -5 39 -3 0 -31 -17 -61 -37 l-56 -37 -72 37 c-39 21 -74 37 -78 37 -5 0
-8 -16 -8 -35z"/>
<path d="M903 3050 c-31 -51 -33 -61 -33 -146 0 -50 3 -113 7 -139 l6 -48 28
54 c22 42 28 68 29 118 0 58 -1 62 -17 50 -15 -13 -15 -11 1 19 12 23 16 51
14 90 l-3 57 -32 -55z"/>
<path d="M1408 2851 c-23 -40 -28 -62 -28 -115 0 -37 4 -66 10 -66 6 0 10 5
10 12 0 6 3 9 6 6 3 -4 0 -16 -6 -28 -8 -15 -10 -44 -5 -89 l7 -66 29 56 28
57 -10 123 c-5 68 -11 132 -12 142 -1 11 -12 0 -29 -32z"/>
<path d="M986 2842 c-26 -52 -31 -92 -19 -153 5 -29 7 -30 15 -14 6 15 7 14 2
-5 -8 -28 -6 -129 3 -143 3 -4 16 15 29 44 23 49 24 59 18 173 -8 153 -14 165
-48 98z"/>
<path d="M1560 2829 c-67 -43 -73 -52 -62 -91 l7 -28 59 39 c50 34 62 38 82
29 27 -13 33 -34 7 -23 -10 3 -20 7 -23 8 -3 1 -33 -16 -68 -38 -62 -40 -72
-58 -56 -99 5 -13 17 -8 64 24 53 36 62 39 84 28 29 -12 36 -34 9 -23 -29 12
-35 10 -95 -29 -58 -37 -63 -46 -50 -93 7 -23 8 -22 66 16 l59 39 83 -41 c46
-23 86 -39 88 -36 3 3 3 21 0 41 -5 28 -13 39 -35 48 -16 7 -29 17 -29 22 0 6
7 7 15 4 8 -3 23 -9 32 -13 13 -5 15 -3 10 11 -4 10 -7 26 -7 37 0 10 -13 25
-30 34 -36 19 -41 40 -5 23 32 -14 38 -8 30 34 -6 31 -14 38 -90 75 l-84 42
-61 -40z"/>
<path d="M554 2728 c3 -13 6 -31 6 -40 0 -10 15 -25 33 -34 17 -10 27 -19 20
-21 -7 -2 -22 1 -34 7 -20 11 -21 10 -16 -11 4 -13 7 -30 7 -36 0 -7 15 -20
33 -29 17 -10 27 -19 20 -21 -7 -2 -22 1 -34 8 -19 10 -21 9 -16 -6 4 -9 7
-25 7 -36 0 -14 22 -30 80 -59 44 -22 85 -40 92 -40 7 0 34 16 61 35 37 28 47
41 47 65 0 16 -4 31 -8 34 -5 3 -32 -11 -61 -31 -46 -30 -57 -34 -77 -24 -13
6 -24 15 -24 21 0 6 9 6 24 -1 21 -10 32 -6 80 27 55 39 67 61 47 92 -7 11
-20 6 -64 -23 -49 -32 -57 -35 -76 -23 -28 17 -27 32 0 17 19 -10 30 -6 78 28
56 40 72 71 52 101 -7 11 -20 6 -64 -23 l-56 -37 -77 41 c-42 23 -79 41 -81
41 -3 0 -3 -10 1 -22z"/>
<path d="M912 2695 c-12 -25 -22 -56 -22 -68 0 -40 33 -247 40 -247 4 0 15 24
25 53 14 41 16 67 10 112 -5 43 -9 54 -17 44 -7 -11 -8 -9 -3 6 8 25 8 19 6
88 0 31 -5 57 -9 57 -4 0 -18 -20 -30 -45z"/>
<path d="M1325 2690 l-28 -55 18 -125 c9 -69 20 -129 23 -134 3 -5 16 15 29
44 20 45 22 63 17 112 -6 53 -15 71 -27 51 -2 -5 -1 -1 1 7 11 33 13 88 5 120
l-10 35 -28 -55z"/>
<path d="M1022 2494 c-25 -51 -26 -56 -11 -125 7 -34 14 -47 19 -38 5 7 7 -4
4 -27 -3 -21 1 -59 8 -84 l14 -44 21 55 c21 54 21 55 2 149 -10 52 -19 107
-19 122 0 43 -15 40 -38 -8z"/>
<path d="M1442 2495 c-23 -48 -26 -75 -15 -138 4 -26 10 -36 19 -33 10 4 11
-1 5 -17 -9 -23 7 -127 20 -127 3 0 14 21 24 46 17 45 17 50 -5 178 -12 72
-23 132 -24 133 -1 2 -12 -18 -24 -42z"/>
<path d="M1583 2463 c-48 -33 -52 -38 -46 -67 3 -17 7 -33 9 -35 2 -2 28 13
59 32 57 35 83 38 106 11 14 -17 5 -18 -22 -3 -17 8 -31 4 -80 -28 -55 -35
-59 -40 -53 -68 4 -16 8 -32 10 -34 1 -2 26 11 54 28 52 32 75 37 100 21 21
-13 5 -24 -17 -11 -15 8 -31 2 -76 -27 -56 -36 -58 -38 -51 -72 3 -19 8 -37
10 -39 2 -2 28 12 58 32 l55 36 88 -39 c48 -21 89 -37 91 -35 10 10 -10 75
-22 75 -8 0 -24 9 -37 21 -23 19 -18 20 24 4 11 -5 17 -3 17 6 0 36 -15 58
-48 74 -20 10 -32 20 -25 22 7 2 21 -1 32 -7 19 -10 21 -8 21 17 0 15 -4 33
-8 38 -11 15 -160 85 -180 84 -9 0 -40 -16 -69 -36z"/>
<path d="M600 2388 c1 -34 15 -57 41 -68 16 -7 29 -16 29 -21 0 -12 -7 -11
-31 1 -16 9 -19 7 -19 -12 0 -31 11 -45 43 -57 15 -6 27 -15 27 -21 0 -7 -7
-7 -21 0 -27 15 -35 6 -23 -27 7 -21 28 -35 96 -66 l86 -39 49 33 c26 18 50
33 51 35 9 6 -11 64 -21 64 -7 0 -30 -14 -51 -30 -45 -34 -55 -36 -82 -15 -18
15 -18 15 7 9 20 -4 40 3 78 28 47 30 50 35 45 63 -4 17 -8 32 -10 34 -2 2
-26 -11 -54 -29 -37 -23 -57 -30 -75 -26 -14 4 -25 11 -25 16 0 6 11 8 24 4
17 -4 39 4 75 28 49 32 51 35 45 68 -3 19 -7 37 -9 39 -2 2 -27 -14 -56 -34
l-51 -38 -74 36 c-81 40 -94 44 -94 25z"/>
<path d="M962 2352 l-23 -52 31 -120 c16 -66 30 -122 30 -126 0 -19 19 13 30
50 9 35 9 55 -1 100 -8 37 -15 52 -21 44 -5 -8 -6 -1 -3 17 3 17 -1 55 -8 85
l-12 55 -23 -53z"/>
<path d="M1389 2369 c-38 -58 -38 -78 -6 -207 16 -67 33 -122 36 -122 4 0 14
22 24 50 15 42 16 56 6 97 -14 57 -17 62 -29 43 -13 -20 -13 5 -1 28 6 11 5
40 -3 76 -11 59 -12 59 -27 35z"/>
<path d="M1090 2156 c-20 -45 -21 -48 -4 -101 14 -44 20 -52 31 -43 11 9 12 6
4 -15 -7 -19 -6 -38 5 -71 9 -26 19 -48 24 -51 4 -2 13 16 20 41 12 42 10 54
-20 162 -18 64 -34 119 -36 121 -2 2 -13 -17 -24 -43z"/>
<path d="M1506 2150 c-20 -50 -20 -54 0 -120 12 -40 18 -50 25 -39 7 10 8 7 4
-11 -3 -14 3 -50 13 -80 l19 -55 17 51 c16 51 16 51 -17 167 -18 64 -36 119
-39 122 -3 3 -13 -12 -22 -35z"/>
<path d="M1662 2128 c-51 -32 -56 -41 -44 -86 l7 -22 57 35 c50 31 59 34 82
24 14 -7 26 -16 26 -20 0 -5 -11 -4 -24 2 -20 10 -32 6 -79 -25 -55 -34 -56
-36 -46 -66 6 -16 13 -30 17 -30 3 0 27 14 53 31 40 25 53 29 76 22 15 -5 28
-14 30 -20 3 -9 -3 -9 -24 -1 -25 9 -35 6 -78 -21 -28 -17 -50 -36 -49 -41 7
-64 15 -68 73 -31 l51 33 90 -38 c50 -20 93 -35 95 -32 3 3 0 18 -5 34 -7 21
-21 34 -45 43 -19 7 -35 16 -35 21 0 5 11 4 25 -2 32 -14 38 -8 25 26 -6 17
-24 33 -47 43 -21 9 -33 18 -26 20 7 2 21 -1 32 -7 18 -9 21 -8 20 7 -1 40
-18 56 -92 88 -111 48 -107 48 -165 13z"/>
<path d="M683 2045 c7 -24 18 -37 33 -41 13 -3 29 -12 35 -20 10 -13 8 -13
-15 -4 -37 14 -36 14 -25 -18 6 -18 24 -35 46 -46 19 -9 33 -19 30 -22 -3 -3
-15 0 -27 6 -29 16 -34 8 -17 -27 12 -22 35 -36 102 -62 85 -35 87 -35 118
-17 68 37 72 43 56 76 l-14 30 -45 -30 c-52 -34 -59 -36 -86 -15 -18 15 -18
15 8 9 40 -9 122 49 112 79 -11 39 -22 40 -65 8 -49 -35 -58 -37 -85 -16 -18
15 -18 15 8 9 20 -4 38 2 73 26 43 29 46 34 39 63 -3 18 -8 34 -10 36 -2 2
-26 -11 -54 -29 l-50 -32 -84 36 c-47 20 -87 36 -89 36 -3 0 0 -16 6 -35z"/>
<path d="M1047 2036 c-24 -51 -22 -66 27 -191 l43 -110 12 40 c6 22 11 49 10
60 -1 34 -26 90 -39 87 -8 -2 -11 5 -7 20 3 13 -2 47 -11 77 l-17 54 -18 -37z"/>
<path d="M1456 2010 l-18 -50 42 -115 c24 -63 46 -115 49 -115 4 0 12 21 19
46 11 40 10 53 -4 93 -22 57 -23 59 -35 41 -7 -11 -8 -7 -3 13 6 26 -11 113
-25 130 -4 4 -15 -16 -25 -43z"/>
<path d="M1191 1849 c-15 -43 -14 -57 7 -106 11 -27 22 -41 30 -38 9 3 11 -1
7 -14 -7 -22 31 -115 44 -107 5 3 12 22 15 41 5 27 -2 58 -36 145 -24 60 -46
110 -50 110 -3 0 -11 -14 -17 -31z"/>
<path d="M1606 1828 c-16 -39 -16 -43 5 -94 11 -30 25 -51 30 -48 5 3 9 -7 9
-21 0 -14 10 -45 22 -68 l22 -42 13 44 c12 41 11 48 -16 110 -16 36 -36 87
-46 114 -10 26 -19 47 -20 47 -2 0 -10 -19 -19 -42z"/>
<path d="M1765 1809 c-27 -18 -51 -33 -53 -34 -2 -2 15 -49 24 -63 1 -1 24 11
51 28 38 23 57 29 77 24 39 -9 46 -28 7 -19 -25 5 -41 1 -76 -22 -39 -24 -45
-32 -40 -53 10 -40 17 -41 68 -9 34 21 54 28 72 23 36 -9 42 -25 7 -18 -22 4
-41 -1 -73 -22 -24 -16 -45 -29 -47 -30 -2 -1 4 -16 13 -34 l16 -31 50 29 51
29 89 -33 c49 -19 94 -34 99 -34 24 0 -22 59 -55 71 -19 7 -35 17 -35 21 0 4
12 3 26 -2 36 -14 36 -13 19 20 -9 17 -31 36 -52 45 -20 8 -34 18 -30 21 3 3
15 0 27 -6 29 -16 38 -4 20 27 -11 18 -43 37 -109 64 -51 22 -94 39 -95 39 0
0 -23 -14 -51 -31z"/>
<path d="M792 1750 c7 -22 22 -37 45 -47 20 -8 33 -17 30 -19 -3 -3 -15 -1
-26 6 -24 12 -25 10 -10 -24 7 -13 25 -30 41 -37 36 -15 48 -32 13 -19 -37 14
-38 13 -19 -18 13 -22 36 -36 104 -60 48 -18 93 -32 99 -32 6 0 29 11 51 25
40 25 40 26 25 55 l-15 30 -47 -29 c-44 -28 -49 -29 -75 -15 -35 18 -37 27 -2
14 21 -8 34 -5 70 16 37 22 43 30 38 48 -11 37 -21 39 -67 12 -32 -19 -53 -25
-71 -20 -14 3 -26 10 -26 15 0 5 10 5 23 0 17 -7 32 -2 68 23 46 31 46 31 32
64 -13 32 -13 32 -41 15 -15 -9 -35 -23 -45 -31 -17 -15 -31 -11 -194 55 -10
4 -10 -2 -1 -27z"/>
<path d="M1160 1736 c-5 -15 -10 -38 -10 -52 0 -25 82 -198 99 -209 6 -3 13
11 17 31 8 43 -32 144 -49 122 -6 -9 -7 -5 -4 10 3 13 -5 45 -18 75 l-24 51
-11 -28z"/>
<path d="M1572 1718 c-18 -52 -16 -63 40 -177 l52 -105 14 45 c11 40 11 48 -9
92 -23 48 -33 57 -43 35 -3 -7 -3 -1 0 13 3 15 -4 47 -18 78 l-23 53 -13 -34z"/>
<path d="M1321 1566 c-15 -37 -14 -51 5 -89 26 -51 36 -60 46 -45 7 9 8 6 4
-11 -3 -15 4 -38 20 -63 14 -22 23 -42 21 -45 -3 -2 -13 9 -23 26 -10 16 -21
28 -26 25 -4 -3 -8 2 -8 11 0 9 -12 37 -27 62 -23 39 -28 43 -34 27 -16 -40
-7 -70 42 -146 63 -95 78 -110 81 -77 1 25 4 48 14 115 5 36 0 51 -50 140 -54
96 -55 98 -65 70z"/>
<path d="M1736 1548 c-3 -13 -6 -34 -6 -48 1 -28 43 -103 53 -93 4 3 7 -2 7
-12 0 -10 12 -39 27 -64 23 -39 27 -43 34 -26 15 39 8 66 -35 145 -25 44 -48
89 -51 100 -8 26 -21 25 -29 -2z"/>
<path d="M1893 1514 c-46 -28 -51 -39 -30 -69 13 -17 16 -17 63 10 48 27 51
27 79 11 l30 -16 -28 6 c-19 4 -41 -1 -72 -17 -48 -26 -53 -35 -31 -64 14 -19
15 -19 62 7 45 24 51 25 79 12 l30 -14 -28 5 c-20 4 -42 -2 -73 -20 -24 -14
-44 -28 -44 -31 0 -2 7 -16 16 -29 l16 -25 47 25 46 25 102 -34 103 -35 -15
29 c-9 17 -28 33 -50 40 -19 6 -37 16 -40 21 -4 5 6 4 21 -1 15 -6 29 -9 31
-6 6 6 -27 56 -37 56 -17 0 -63 21 -57 26 3 3 15 0 27 -6 28 -15 34 -9 20 22
-9 19 -35 33 -113 61 -56 20 -104 37 -107 37 -3 -1 -24 -12 -47 -26z"/>
<path d="M920 1496 c0 -20 36 -57 66 -66 20 -7 33 -14 31 -16 -2 -3 -16 0 -31
5 -30 12 -32 9 -10 -24 8 -13 29 -27 45 -30 16 -4 31 -11 34 -16 4 -5 -6 -4
-21 1 -34 13 -37 10 -16 -18 17 -21 172 -82 211 -82 19 0 81 36 81 47 0 5 -7
17 -16 28 -15 20 -15 20 -55 -3 -40 -23 -91 -24 -104 -1 -4 5 5 5 20 -1 20 -8
35 -6 65 10 50 25 54 33 32 60 l-18 23 -42 -27 c-40 -25 -43 -25 -74 -11 -31
14 -31 15 -5 10 15 -3 41 2 60 11 55 28 57 32 39 64 l-17 29 -46 -26 -46 -27
-77 28 c-42 15 -84 30 -92 33 -7 3 -14 2 -14 -1z"/>
<path d="M1710 1436 c-16 -44 -13 -52 51 -152 63 -97 78 -105 79 -41 0 36 -50
113 -61 95 -6 -9 -9 -3 -9 17 0 17 -12 48 -25 69 l-24 40 -11 -28z"/>
<path d="M1476 1314 c-12 -32 -5 -68 19 -100 35 -46 31 -57 -5 -14 l-29 35 -1
-41 c0 -36 8 -50 68 -120 l67 -79 3 33 c3 32 -29 85 -53 89 -15 2 -26 43 -15
61 8 15 9 14 10 -6 0 -12 16 -39 35 -60 l34 -37 1 39 c0 22 -6 47 -14 55 -8 9
-36 49 -64 89 -36 53 -51 68 -56 56z"/>
<path d="M1886 1268 c-5 -26 -1 -41 22 -73 16 -22 34 -39 41 -37 6 1 11 -7 11
-17 0 -24 48 -83 61 -75 21 13 5 58 -47 131 -31 43 -59 84 -61 91 -9 21 -20
13 -27 -20z"/>
<path d="M2048 1248 c-41 -24 -45 -33 -23 -62 14 -18 15 -18 59 8 42 25 47 25
78 12 l33 -14 -35 4 c-25 4 -46 -2 -73 -19 -38 -23 -38 -23 -20 -46 l19 -23
43 21 c42 22 93 22 106 0 4 -5 -5 -5 -20 1 -20 7 -35 5 -70 -12 -25 -12 -45
-25 -45 -28 0 -4 9 -15 20 -25 19 -18 22 -18 56 -2 45 22 53 21 153 -8 47 -14
89 -25 95 -25 20 0 -38 49 -65 55 -16 4 -31 11 -34 16 -4 5 6 4 21 -1 33 -13
37 -9 19 16 -7 11 -32 26 -55 33 -23 7 -40 14 -37 17 2 2 16 0 31 -5 30 -12
33 -2 9 27 -15 17 -192 83 -221 82 -4 0 -24 -10 -44 -22z"/>
<path d="M1090 1229 c7 -11 26 -27 43 -34 24 -11 27 -14 12 -15 -18 -1 -17 -3
8 -25 15 -13 27 -28 27 -33 0 -21 41 -42 133 -68 l97 -28 40 20 c39 19 39 19
21 43 l-18 23 -41 -21 c-41 -21 -85 -21 -98 0 -3 5 5 5 19 0 17 -7 35 -4 66
10 42 18 42 19 25 44 -9 14 -18 25 -21 25 -2 0 -21 -10 -42 -22 -33 -19 -42
-20 -72 -10 -26 9 -27 10 -6 7 27 -5 107 27 107 44 0 4 -9 16 -21 27 -20 18
-21 18 -59 -3 l-39 -21 -93 29 c-50 16 -94 29 -95 29 -2 0 1 -9 7 -21z m134
-108 c4 -5 -3 -7 -14 -4 -23 6 -26 13 -6 13 8 0 17 -4 20 -9z"/>
<path d="M1877 1186 c-15 -39 -4 -64 59 -136 36 -41 69 -76 75 -78 5 -2 9 10
9 28 0 38 -59 118 -72 98 -5 -9 -8 -5 -8 12 0 14 -13 40 -29 59 -24 29 -29 31
-34 17z"/>
<path d="M1650 1059 c0 -27 8 -43 33 -67 18 -18 36 -29 40 -26 4 4 7 1 7 -7 0
-8 16 -30 35 -49 l35 -34 0 30 c-1 22 -18 48 -75 109 l-74 80 -1 -36z"/>
<path d="M2067 1034 c-4 -23 2 -36 27 -64 18 -20 38 -34 46 -32 7 3 10 0 7 -5
-7 -11 -1 -20 41 -57 l32 -30 0 30 c-1 22 -19 48 -74 108 -73 78 -73 79 -79
50z"/>
<path d="M1272 1019 c2 -8 14 -18 26 -24 12 -5 22 -15 22 -22 0 -7 10 -17 21
-24 12 -6 31 -22 43 -35 31 -35 210 -78 257 -62 45 15 45 15 24 38 -16 18 -20
18 -52 5 -20 -8 -47 -15 -62 -14 -20 0 -14 4 21 15 57 17 63 26 39 48 -18 16
-22 16 -50 2 -16 -9 -43 -16 -58 -15 l-28 1 25 8 c14 4 38 13 54 19 28 11 28
12 11 31 -22 24 -37 25 -76 5 -30 -16 -64 -11 -203 31 -12 4 -17 2 -14 -7z
m85 -45 c-3 -3 -12 -4 -19 -1 -8 3 -5 6 6 6 11 1 17 -2 13 -5z m50 -50 c-3 -3
-12 -4 -19 -1 -8 3 -5 6 6 6 11 1 17 -2 13 -5z"/>
<path d="M2217 1012 l-39 -17 25 -23 25 -23 40 20 c29 15 47 18 63 12 20 -7
18 -9 -17 -14 -22 -4 -48 -13 -59 -21 -19 -14 -19 -16 -3 -32 17 -17 20 -17
68 0 64 23 78 14 16 -9 -25 -10 -46 -20 -46 -22 0 -3 10 -13 22 -23 21 -17 25
-17 62 -2 36 14 45 14 135 -8 53 -12 103 -25 111 -27 8 -3 2 7 -13 21 -15 14
-38 26 -50 27 -12 0 -16 3 -9 6 10 4 9 9 -4 24 -9 10 -23 19 -30 19 -7 0 -11
6 -8 13 8 22 -19 37 -122 68 -113 34 -117 34 -167 11z m270 -78 c-3 -3 -12 -4
-19 -1 -8 3 -5 6 6 6 11 1 17 -2 13 -5z m-70 -20 c-3 -3 -12 -4 -19 -1 -8 3
-5 6 6 6 11 1 17 -2 13 -5z"/>
<path d="M1640 976 c0 -18 20 -42 70 -88 39 -35 75 -64 80 -66 6 -2 10 7 10
21 0 17 -12 34 -37 53 -20 15 -52 45 -71 66 -40 44 -52 47 -52 14z"/>
<path d="M2060 948 c0 -33 7 -43 78 -103 69 -60 77 -64 80 -45 4 24 -64 104
-80 94 -4 -3 -8 1 -8 8 0 8 -16 29 -35 48 l-35 34 0 -36z"/>
<path d="M1840 865 c0 -23 57 -81 74 -76 4 1 15 -7 24 -18 9 -10 29 -27 45
-36 26 -17 27 -17 27 3 0 12 -20 35 -53 60 -29 23 -63 53 -77 67 -30 31 -40
32 -40 0z"/>
<path d="M2260 837 c0 -27 64 -92 81 -82 5 4 9 0 9 -7 0 -11 60 -58 75 -58 3
0 5 8 5 18 0 16 -29 43 -147 135 -23 18 -23 18 -23 -6z"/>
<path d="M1483 830 c14 -11 32 -20 41 -20 9 0 15 -4 14 -9 -12 -42 252 -121
326 -99 35 11 35 12 15 26 -20 14 -51 12 -93 -4 -12 -5 -17 -4 -13 3 4 6 21
13 39 17 l32 6 -23 16 c-19 14 -29 15 -61 5 -54 -16 -61 -12 -15 8 l40 18 -26
16 c-23 15 -30 15 -65 4 -34 -12 -48 -11 -129 9 -110 29 -114 29 -82 4z"/>
<path d="M2440 823 c-8 -3 -26 -10 -38 -15 l-24 -8 23 -19 c21 -17 27 -17 62
-5 22 8 49 14 61 13 11 0 -3 -8 -33 -17 -53 -17 -53 -17 -33 -36 20 -17 24
-17 67 -3 25 9 45 12 45 6 0 -5 -4 -9 -9 -9 -5 0 -22 -5 -37 -10 l-27 -11 23
-16 c20 -14 30 -15 66 -5 37 10 57 9 129 -8 106 -25 127 -26 99 -5 -10 8 -27
15 -37 15 -10 0 -16 4 -12 9 3 6 -3 15 -14 21 -11 6 -32 21 -46 34 -17 16 -60
32 -130 50 -110 27 -111 28 -135 19z m257 -79 c-3 -3 -12 -4 -19 -1 -8 3 -5 6
6 6 11 1 17 -2 13 -5z"/>
<path d="M1850 796 c0 -19 16 -34 81 -76 44 -28 83 -49 86 -47 11 11 -18 44
-54 63 -21 10 -39 22 -41 26 -2 3 -19 18 -38 33 l-34 26 0 -25z"/>
<path d="M2260 767 c0 -19 16 -35 78 -76 43 -28 81 -51 85 -51 4 0 7 8 7 18 0
19 -66 66 -80 57 -6 -4 -10 0 -10 8 0 7 -12 22 -27 33 -50 36 -53 37 -53 11z"/>
<path d="M2064 683 c3 -21 5 -39 6 -40 0 -5 105 -56 141 -68 33 -12 37 -12 32
1 -3 8 -9 14 -13 14 -5 0 -6 9 -3 19 3 13 -2 21 -15 25 -11 4 -48 25 -81 46
-34 22 -64 40 -67 40 -3 0 -3 -17 0 -37z m101 -62 c-6 -5 -25 10 -25 20 0 5 6
4 14 -3 8 -7 12 -15 11 -17z"/>
<path d="M1690 696 c0 -3 35 -21 78 -41 86 -42 267 -78 325 -66 32 7 32 7 7
16 -14 5 -38 8 -55 7 -29 -1 -29 -1 -5 7 l25 7 -25 9 c-14 5 -27 9 -30 8 -3 0
-23 -3 -45 -6 l-40 -6 38 13 38 12 -24 13 c-18 10 -36 11 -64 4 -28 -7 -61 -4
-123 9 -94 19 -100 20 -100 14z"/>
<path d="M2470 680 c0 -6 12 -23 28 -37 23 -22 23 -24 5 -14 -19 9 -23 9 -23
-2 0 -8 6 -19 13 -25 17 -14 158 -74 163 -70 2 2 0 16 -4 30 -5 20 -30 41 -91
77 -93 56 -91 55 -91 41z m105 -79 c3 -5 1 -12 -4 -15 -5 -3 -11 1 -15 9 -6
16 9 21 19 6z"/>
<path d="M2635 655 c-39 -11 -39 -12 -17 -24 14 -7 41 -10 70 -7 l47 6 -38
-13 -39 -12 55 -27 c46 -22 65 -26 104 -22 28 4 85 -1 137 -10 83 -16 124 -16
75 -1 -12 4 -47 22 -79 41 -79 46 -257 85 -315 69z m145 -65 c-14 -4 -34 -8
-45 -8 -16 0 -15 2 5 8 14 4 34 8 45 8 16 0 15 -2 -5 -8z"/>
<path d="M2280 595 c0 -2 4 -15 9 -28 7 -19 22 -28 60 -38 27 -7 48 -16 45
-21 -3 -4 16 -8 43 -8 42 0 46 2 33 15 -14 13 -190 87 -190 80z"/>
<path d="M1985 570 c78 -27 308 -65 332 -55 30 12 -99 47 -207 55 -52 4 -115
11 -140 14 -44 6 -44 6 15 -14z"/>
<path d="M2850 531 c-22 -6 -23 -8 -7 -14 10 -4 29 -7 42 -7 13 0 25 -4 27
-10 2 -5 18 -10 36 -12 17 -1 32 -6 32 -10 0 -4 34 -8 76 -8 47 0 73 -4 69
-10 -3 -5 -23 -11 -43 -11 -20 -1 26 -8 103 -15 77 -8 154 -13 170 -11 17 2
-8 7 -55 12 -47 5 -74 11 -60 13 39 6 -97 49 -228 72 -121 21 -124 22 -162 11z
m107 -17 c-3 -3 -12 -4 -19 -1 -8 3 -5 6 6 6 11 1 17 -2 13 -5z m231 -61 c-10
-2 -26 -2 -35 0 -10 3 -2 5 17 5 19 0 27 -2 18 -5z"/>
<path d="M2950 460 c8 -5 31 -9 50 -9 l35 1 -30 8 c-16 4 -39 8 -50 9 -16 1
-17 -1 -5 -9z"/>
</g>
</svg>
